<svg width="29" height="28" viewBox="0 0 29 28" fill="none" xmlns="http://www.w3.org/2000/svg">
<g id="Setting_line">
<path id="Subtract" d="M16.9923 3.92184L17.9874 3.82234V3.82234L16.9923 3.92184ZM16.7176 2.71917L17.5066 2.10485V2.10485L16.7176 2.71917ZM17.526 6.03687L18.1291 5.23921L18.1291 5.23921L17.526 6.03687ZM17.9915 6.2297L17.8539 7.22019H17.8539L17.9915 6.2297ZM19.8643 5.11148L20.4976 5.88544L20.4976 5.88544L19.8643 5.11148ZM20.909 4.45537L20.7855 3.46303H20.7855L20.909 4.45537ZM21.2543 4.47259L21.476 3.49747L21.476 3.49747L21.2543 4.47259ZM22.2285 5.2294L22.9356 4.52229V4.52229L22.2285 5.2294ZM23.2709 6.27177L23.978 5.56467L23.2709 6.27177ZM24.0277 7.24601L23.0526 7.46769L23.0526 7.4677L24.0277 7.24601ZM24.0449 7.59124L23.0526 7.46769V7.46769L24.0449 7.59124ZM23.3888 8.63595L24.1628 9.26919V9.26919L23.3888 8.63595ZM22.2706 10.5089L23.2611 10.3713L23.2611 10.3713L22.2706 10.5089ZM22.4634 10.9743L23.2611 10.3713L23.2611 10.3713L22.4634 10.9743ZM24.5785 11.508L24.479 12.503L24.5785 11.508ZM25.7812 11.7828L25.1668 12.5718V12.5718L25.7812 11.7828ZM26.0131 12.039L25.1668 12.5718L25.1668 12.5718L26.0131 12.039ZM26.0131 15.9612L25.1668 15.4285L25.1668 15.4285L26.0131 15.9612ZM25.7811 16.2176L26.3953 17.0067L25.7811 16.2176ZM24.5786 16.4923L24.6781 17.4874L24.5786 16.4923ZM22.464 17.0257L23.2615 17.629L23.2615 17.629L22.464 17.0257ZM22.271 17.4917L21.2805 17.3543L22.271 17.4917ZM23.389 19.364L22.615 19.9973V19.9973L23.389 19.364ZM24.045 20.4084L23.0526 20.5321V20.5321L24.045 20.4084ZM24.0277 20.754L25.0028 20.9758L25.0028 20.9758L24.0277 20.754ZM21.2543 23.5272L21.0327 22.5521L21.0326 22.5521L21.2543 23.5272ZM20.9091 23.5444L21.0327 22.5521H21.0327L20.9091 23.5444ZM19.8644 22.8883L19.1573 23.5954L19.1926 23.6307L19.2312 23.6623L19.8644 22.8883ZM19.8644 22.8883L20.5715 22.1812L20.5362 22.1459L20.4976 22.1143L19.8644 22.8883ZM17.9915 21.7701L18.1291 22.7606V22.7606L17.9915 21.7701ZM17.526 21.9629L16.9229 21.1653L16.9229 21.1653L17.526 21.9629ZM16.9924 24.0782L17.9874 24.1777L16.9924 24.0782ZM16.7175 25.2813L17.5064 25.8957L17.5065 25.8957L16.7175 25.2813ZM16.4614 25.513L15.9285 24.6668L15.9285 24.6668L16.4614 25.513ZM12.539 25.5131L13.0718 24.6668L13.0718 24.6668L12.539 25.5131ZM12.2828 25.2812L13.0718 24.6668L13.0718 24.6668L12.2828 25.2812ZM12.008 24.0785L11.013 24.178L12.008 24.0785ZM11.4743 21.9634L10.8713 22.7611H10.8713L11.4743 21.9634ZM11.0089 21.7706L11.1465 20.7801H11.1465L11.0089 21.7706ZM9.13592 22.8888L8.50268 22.1149H8.50268L9.13592 22.8888ZM8.09117 23.545L8.2147 24.5373H8.2147L8.09117 23.545ZM7.74598 23.5278L7.52432 24.5029L7.52433 24.5029L7.74598 23.5278ZM6.77172 22.7709L6.01914 23.4294L6.04107 23.4545L6.06461 23.478L6.77172 22.7709ZM6.77171 22.7709L7.52428 22.1124L7.50236 22.0874L7.47881 22.0638L6.77171 22.7709ZM5.72936 21.7286L6.43647 21.0215L6.41569 21.0007L6.39372 20.9812L5.72936 21.7286ZM5.72935 21.7286L5.02224 22.4357L5.04302 22.4564L5.06498 22.476L5.72935 21.7286ZM4.97253 20.7543L3.99741 20.976H3.99741L4.97253 20.7543ZM4.95531 20.4091L5.94765 20.5326L5.94765 20.5326L4.95531 20.4091ZM5.61144 19.3644L4.85887 18.7059L4.84797 18.7183L4.83748 18.7311L5.61144 19.3644ZM5.61145 19.3644L6.36403 20.0229L6.37493 20.0104L6.38541 19.9976L5.61145 19.3644ZM6.72969 17.4915L5.7392 17.6291L5.7392 17.6291L6.72969 17.4915ZM6.53687 17.026L5.7392 17.6291H5.7392L6.53687 17.026ZM4.42183 16.4923L4.52134 15.4973H4.52134L4.42183 16.4923ZM3.21917 16.2176L2.60485 17.0066L2.60485 17.0066L3.21917 16.2176ZM2.98723 15.9613L2.14096 16.494L2.14096 16.494L2.98723 15.9613ZM2.8335 14.7372H3.8335H2.8335ZM2.8335 13.2632H1.8335H2.8335ZM2.98729 12.039L2.14109 11.5061L2.14109 11.5061L2.98729 12.039ZM3.21908 11.7828L2.60467 10.9938L2.60466 10.9939L3.21908 11.7828ZM4.42198 11.508L4.52148 12.503H4.52148L4.42198 11.508ZM6.53741 10.9742L7.33519 11.5771L6.53741 10.9742ZM6.7301 10.509L5.73964 10.3712L6.7301 10.509ZM5.61165 8.63562L4.80098 9.22111L4.81862 9.24553L4.8377 9.26886L5.61165 8.63562ZM5.61165 8.63561L6.42233 8.05012L6.40469 8.0257L6.38561 8.00238L5.61165 8.63561ZM4.95535 7.59054L5.94771 7.46716L5.94771 7.46716L4.95535 7.59054ZM4.97255 7.24565L3.99739 7.02414L3.99739 7.02414L4.97255 7.24565ZM5.72955 6.2711L5.02245 5.56399L5.02245 5.56399L5.72955 6.2711ZM7.74603 4.47205L7.52437 3.49693L7.52437 3.49693L7.74603 4.47205ZM8.09122 4.45483L7.96769 5.44718H7.96769L8.09122 4.45483ZM9.13606 5.11105L9.7693 4.3371L9.7693 4.33709L9.13606 5.11105ZM11.0087 6.22926L11.1461 7.21978H11.1461L11.0087 6.22926ZM11.4746 6.03631L12.0778 6.83388L12.0778 6.83388L11.4746 6.03631ZM12.008 3.92169L11.013 3.82218V3.82218L12.008 3.92169ZM12.2827 2.71927L11.4936 2.10504L11.4936 2.10504L12.2827 2.71927ZM12.5392 2.48717L12.0065 1.64083L12.0065 1.64083L12.5392 2.48717ZM16.4613 2.48723L16.994 1.64097V1.64097L16.4613 2.48723ZM17.9874 3.82234C17.9569 3.51733 17.9279 3.21576 17.8774 2.96496C17.8235 2.69671 17.7283 2.38957 17.5066 2.10485L15.9285 3.3335C15.8841 3.27647 15.8938 3.24566 15.9167 3.35933C15.9431 3.49044 15.9628 3.67637 15.9973 4.02135L17.9874 3.82234ZM18.1291 5.23921C18.2497 5.33042 18.2128 5.41036 18.1518 5.13054C18.0926 4.85886 18.0516 4.46493 17.9874 3.82234L15.9973 4.02135C16.0565 4.61313 16.108 5.14497 16.1977 5.55635C16.2855 5.95958 16.4538 6.47986 16.9229 6.83454L18.1291 5.23921ZM18.1291 5.23921L18.1291 5.23921L16.9229 6.83454C17.1952 7.04045 17.5157 7.17322 17.8539 7.22019L18.1291 5.23921ZM19.2311 4.33752C18.7313 4.74647 18.4238 4.99602 18.1898 5.14627C17.9488 5.30101 17.9793 5.2184 18.1291 5.23921L17.8539 7.22019C18.4364 7.3011 18.9232 7.05215 19.2705 6.82915C19.6248 6.60165 20.0373 6.26204 20.4976 5.88544L19.2311 4.33752ZM20.7855 3.46303C20.4274 3.50761 20.1429 3.6575 19.9151 3.80902C19.7021 3.9507 19.4683 4.14342 19.2311 4.33753L20.4976 5.88544C20.7659 5.6659 20.9113 5.54839 21.0227 5.47433C21.1192 5.41013 21.1043 5.43877 21.0326 5.4477L20.7855 3.46303ZM21.476 3.49747C21.2496 3.44599 21.0159 3.43434 20.7855 3.46303L21.0326 5.4477L21.0326 5.4477L21.476 3.49747ZM22.9356 4.52229C22.7189 4.30555 22.5055 4.09052 22.3076 3.92835C22.096 3.75491 21.8278 3.57746 21.476 3.49747L21.0326 5.4477C20.9621 5.43168 20.9501 5.40169 21.0398 5.47519C21.1432 5.55996 21.2762 5.69135 21.5214 5.9365L22.9356 4.52229ZM23.978 5.56467L22.9356 4.52229L21.5214 5.9365L22.5638 6.97888L23.978 5.56467ZM25.0028 7.02434C24.9228 6.67248 24.7454 6.40432 24.5719 6.19269C24.4098 5.99483 24.1947 5.78142 23.978 5.56467L22.5638 6.97888C22.8089 7.22404 22.9403 7.35705 23.0251 7.46048C23.0986 7.55016 23.0686 7.53816 23.0526 7.46769L25.0028 7.02434ZM25.0373 7.71479C25.0659 7.48438 25.0543 7.25074 25.0028 7.02433L23.0526 7.4677L23.0526 7.46769L25.0373 7.71479ZM24.1628 9.26919C24.3569 9.03195 24.5496 8.79819 24.6913 8.58518C24.8428 8.35735 24.9927 8.07286 25.0373 7.71479L23.0526 7.46769C23.0615 7.39597 23.0902 7.38105 23.026 7.4776C22.9519 7.58895 22.8344 7.73438 22.6148 8.00271L24.1628 9.26919ZM23.2611 10.3713C23.2819 10.5211 23.1992 10.5515 23.354 10.3105C23.5042 10.0766 23.7538 9.76901 24.1628 9.26919L22.6148 8.00271C22.2382 8.46301 21.8986 8.87556 21.6711 9.22984C21.4481 9.5771 21.1992 10.0639 21.2801 10.6465L23.2611 10.3713ZM23.2611 10.3713L23.2611 10.3713L21.2801 10.6465C21.3271 10.9846 21.4598 11.3051 21.6657 11.5774L23.2611 10.3713ZM24.678 10.513C24.0354 10.4487 23.6414 10.4077 23.3697 10.3485C23.0899 10.2875 23.1698 10.2506 23.2611 10.3713L21.6657 11.5774C22.0204 12.0466 22.5407 12.2148 22.9439 12.3026C23.3553 12.3923 23.8872 12.4439 24.479 12.503L24.678 10.513ZM26.3955 10.9937C26.1108 10.772 25.8036 10.6769 25.5354 10.6229C25.2846 10.5725 24.983 10.5435 24.678 10.513L24.479 12.503C24.8239 12.5375 25.0099 12.5573 25.141 12.5836C25.2547 12.6065 25.2239 12.6162 25.1668 12.5718L26.3955 10.9937ZM26.8593 11.5063C26.7357 11.3098 26.5787 11.1364 26.3955 10.9937L25.1668 12.5718L25.1668 12.5718L26.8593 11.5063ZM27.1668 13.2631C27.1668 12.9566 27.168 12.6536 27.1427 12.399C27.1157 12.1267 27.0516 11.8116 26.8593 11.5063L25.1668 12.5718C25.1283 12.5107 25.1411 12.481 25.1525 12.5963C25.1657 12.7294 25.1668 12.9164 25.1668 13.2631H27.1668ZM27.1668 14.7374V13.2631H25.1668V14.7374H27.1668ZM26.8595 16.4939C27.0516 16.1885 27.1158 15.8735 27.1427 15.6013C27.168 15.3467 27.1668 15.0438 27.1668 14.7374H25.1668C25.1668 15.084 25.1657 15.2709 25.1525 15.404C25.1411 15.5193 25.1283 15.4897 25.1668 15.4285L26.8595 16.4939ZM26.3953 17.0067C26.5786 16.864 26.7357 16.6905 26.8595 16.4939L25.1668 15.4285L25.1668 15.4285L26.3953 17.0067ZM24.6781 17.4874C24.983 17.4569 25.2846 17.4279 25.5353 17.3774C25.8035 17.3235 26.1106 17.2283 26.3953 17.0067L25.1668 15.4285C25.2239 15.3841 25.2547 15.3938 25.141 15.4167C25.0099 15.4431 24.824 15.4628 24.4791 15.4973L24.6781 17.4874ZM23.2615 17.629C23.1703 17.7496 23.0904 17.7127 23.3701 17.6518C23.6418 17.5926 24.0356 17.5516 24.6781 17.4874L24.4791 15.4973C23.8874 15.5564 23.3557 15.608 22.9444 15.6976C22.5413 15.7854 22.0211 15.9536 21.6664 16.4225L23.2615 17.629ZM23.2615 17.629L23.2615 17.629L21.6664 16.4225C21.4603 16.695 21.3274 17.0158 21.2805 17.3543L23.2615 17.629ZM24.1629 18.7308C23.7541 18.2311 23.5046 17.9236 23.3544 17.6897C23.1997 17.4488 23.2823 17.4793 23.2615 17.629L21.2805 17.3543C21.1997 17.9366 21.4486 18.4233 21.6716 18.7705C21.899 19.1247 22.2385 19.5371 22.615 19.9973L24.1629 18.7308ZM25.0373 20.2847C24.9926 19.9267 24.8428 19.6423 24.6913 19.4146C24.5497 19.2016 24.357 18.9679 24.1629 18.7308L22.615 19.9973C22.8345 20.2655 22.952 20.4109 23.026 20.5222C23.0902 20.6187 23.0616 20.6038 23.0526 20.5321L25.0373 20.2847ZM25.0028 20.9758C25.0544 20.7492 25.066 20.5153 25.0373 20.2847L23.0526 20.5321L23.0526 20.5321L25.0028 20.9758ZM23.9782 22.435C24.1949 22.2183 24.4098 22.005 24.572 21.8072C24.7454 21.5956 24.9228 21.3275 25.0028 20.9758L23.0526 20.5321C23.0687 20.4617 23.0986 20.4497 23.0252 20.5393C22.9404 20.6427 22.8091 20.7757 22.564 21.0208L23.9782 22.435ZM22.9357 23.4775L23.9782 22.435L22.564 21.0208L21.5215 22.0633L22.9357 23.4775ZM21.476 24.5023C21.8279 24.4224 22.096 24.2449 22.3076 24.0715C22.5055 23.9093 22.7189 23.6943 22.9357 23.4775L21.5215 22.0633C21.2763 22.3085 21.1433 22.4398 21.0399 22.5246C20.9502 22.5981 20.9622 22.5681 21.0327 22.5521L21.476 24.5023ZM20.7855 24.5368C21.0159 24.5655 21.2496 24.5538 21.476 24.5023L21.0326 22.5521H21.0327L20.7855 24.5368ZM19.2312 23.6623C19.4684 23.8564 19.7021 24.0491 19.9152 24.1908C20.143 24.3423 20.4275 24.4922 20.7855 24.5368L21.0327 22.5521C21.1044 22.561 21.1193 22.5897 21.0227 22.5255C20.9114 22.4514 20.766 22.3339 20.4976 22.1144L19.2312 23.6623ZM19.1573 23.5954L19.1573 23.5954L20.5715 22.1812L20.5715 22.1812L19.1573 23.5954ZM18.1291 22.7606C17.9793 22.7814 17.9489 22.6988 18.1898 22.8535C18.4238 23.0038 18.7313 23.2533 19.2312 23.6623L20.4976 22.1143C20.0373 21.7378 19.6248 21.3982 19.2705 21.1707C18.9233 20.9477 18.4364 20.6987 17.8539 20.7796L18.1291 22.7606ZM18.1291 22.7606H18.1291L17.8539 20.7796C17.5158 20.8266 17.1953 20.9594 16.9229 21.1653L18.1291 22.7606ZM17.9874 24.1777C18.0517 23.535 18.0927 23.141 18.1519 22.8693C18.2129 22.5894 18.2498 22.6694 18.1291 22.7606L16.9229 21.1653C16.4538 21.52 16.2856 22.0403 16.1977 22.4435C16.1081 22.8549 16.0565 23.3868 15.9973 23.9787L17.9874 24.1777ZM17.5065 25.8957C17.7282 25.6109 17.8234 25.3037 17.8774 25.0354C17.9279 24.7845 17.9569 24.4828 17.9874 24.1777L15.9973 23.9787C15.9628 24.3238 15.9431 24.5098 15.9167 24.641C15.8938 24.7547 15.8841 24.7239 15.9285 24.6668L17.5065 25.8957ZM16.9943 26.3592C17.1906 26.2356 17.3639 26.0787 17.5064 25.8957L15.9285 24.6668L15.9285 24.6668L16.9943 26.3592ZM15.2371 26.6668C15.5437 26.6668 15.8467 26.668 16.1013 26.6427C16.3737 26.6157 16.6889 26.5515 16.9943 26.3592L15.9285 24.6668C15.9897 24.6283 16.0194 24.641 15.904 24.6525C15.7709 24.6657 15.5839 24.6668 15.2371 24.6668V26.6668ZM13.7631 26.6668H15.2371V24.6668H13.7631V26.6668ZM12.0063 26.3593C12.3116 26.5516 12.6267 26.6157 12.899 26.6427C13.1536 26.668 13.4566 26.6668 13.7631 26.6668V24.6668C13.4164 24.6668 13.2294 24.6657 13.0964 24.6525C12.981 24.6411 13.0107 24.6283 13.0718 24.6668L12.0063 26.3593ZM11.4937 25.8955C11.6364 26.0787 11.8098 26.2357 12.0063 26.3593L13.0718 24.6668L13.0718 24.6668L11.4937 25.8955ZM11.013 24.178C11.0435 24.483 11.0725 24.7846 11.1229 25.0354C11.1769 25.3036 11.2721 25.6108 11.4937 25.8955L13.0718 24.6668C13.1162 24.7239 13.1065 24.7547 13.0836 24.641C13.0573 24.5099 13.0375 24.324 13.003 23.979L11.013 24.178ZM10.8713 22.7611C10.7506 22.6699 10.7875 22.5899 10.8485 22.8697C10.9077 23.1414 10.9487 23.5354 11.013 24.178L13.003 23.979C12.9439 23.3872 12.8923 22.8553 12.8026 22.4439C12.7148 22.0407 12.5465 21.5204 12.0774 21.1657L10.8713 22.7611ZM10.8713 22.7611L10.8713 22.7611L12.0774 21.1657C11.8051 20.9598 11.4846 20.8271 11.1465 20.7801L10.8713 22.7611ZM9.76916 23.6628C10.269 23.2538 10.5766 23.0043 10.8105 22.854C11.0515 22.6993 11.0211 22.7819 10.8713 22.7611L11.1465 20.7801C10.564 20.6992 10.0771 20.9481 9.72984 21.1711C9.37556 21.3986 8.963 21.7382 8.50268 22.1149L9.76916 23.6628ZM8.2147 24.5373C8.57278 24.4927 8.85728 24.3428 9.08512 24.1913C9.29815 24.0496 9.53191 23.8569 9.76916 23.6628L8.50268 22.1149C8.23434 22.3344 8.08891 22.4519 7.97754 22.526C7.881 22.5902 7.89591 22.5616 7.96763 22.5526L8.2147 24.5373ZM7.52433 24.5029C7.7507 24.5543 7.98431 24.566 8.2147 24.5373L7.96764 22.5526L7.96762 22.5526L7.52433 24.5029ZM6.06461 23.478C6.28136 23.6948 6.49478 23.9098 6.69265 24.072C6.90428 24.2454 7.17245 24.4229 7.52432 24.5029L7.96764 22.5526C8.03812 22.5687 8.05011 22.5986 7.96043 22.5252C7.857 22.4404 7.72398 22.309 7.47882 22.0638L6.06461 23.478ZM6.01913 23.4294L6.01914 23.4294L7.52429 22.1124L7.52428 22.1124L6.01913 23.4294ZM5.02225 22.4357L6.0646 23.478L7.47881 22.0638L6.43647 21.0215L5.02225 22.4357ZM5.06498 22.476L5.065 22.476L6.39372 20.9812L6.39371 20.9812L5.06498 22.476ZM3.99741 20.976C4.07739 21.3279 4.25484 21.596 4.42829 21.8076C4.59046 22.0055 4.80549 22.2189 5.02224 22.4357L6.43646 21.0215C6.1913 20.7763 6.05991 20.6433 5.97513 20.5399C5.90164 20.4502 5.93163 20.4622 5.94765 20.5326L3.99741 20.976ZM3.96297 20.2856C3.93429 20.516 3.94594 20.7496 3.99741 20.976L5.94765 20.5327L5.94765 20.5326L3.96297 20.2856ZM4.83748 18.7311C4.64338 18.9684 4.45064 19.2021 4.30897 19.4152C4.15744 19.643 4.00755 19.9275 3.96297 20.2856L5.94765 20.5326C5.93872 20.6044 5.91007 20.6193 5.97428 20.5227C6.04835 20.4114 6.16585 20.266 6.3854 19.9976L4.83748 18.7311ZM4.85888 18.7059L4.85887 18.7059L6.36402 20.0229L6.36403 20.0229L4.85888 18.7059ZM5.7392 17.6291C5.71839 17.4793 5.80101 17.4488 5.64626 17.6898C5.49601 17.9238 5.24645 18.2313 4.83749 18.7311L6.38541 19.9976C6.76202 19.5373 7.10163 19.1248 7.32914 18.7705C7.55214 18.4232 7.80109 17.9364 7.72018 17.3539L5.7392 17.6291ZM5.7392 17.6291L5.7392 17.6291L7.72018 17.3539C7.67321 17.0157 7.54044 16.6952 7.33454 16.4229L5.7392 17.6291ZM4.32233 17.4874C4.96493 17.5516 5.35886 17.5926 5.63054 17.6518C5.91036 17.7128 5.83041 17.7497 5.7392 17.6291L7.33454 16.4229C6.97986 15.9538 6.45958 15.7855 6.05635 15.6977C5.64497 15.608 5.11312 15.5565 4.52134 15.4973L4.32233 17.4874ZM2.60485 17.0066C2.88957 17.2283 3.19671 17.3235 3.46496 17.3774C3.71576 17.4279 4.01733 17.4569 4.32233 17.4874L4.52134 15.4973C4.17636 15.4628 3.99044 15.4431 3.85933 15.4167C3.74566 15.3938 3.77647 15.3841 3.8335 15.4285L2.60485 17.0066ZM2.14096 16.494C2.26467 16.6905 2.42164 16.864 2.60485 17.0066L3.8335 15.4285L3.83349 15.4285L2.14096 16.494ZM1.8335 14.7372C1.8335 15.0438 1.83235 15.3467 1.85759 15.6013C1.88459 15.8736 1.94873 16.1887 2.14096 16.494L3.8335 15.4285C3.872 15.4897 3.85927 15.5194 3.84783 15.404C3.83464 15.2709 3.8335 15.0839 3.8335 14.7372H1.8335ZM1.8335 13.2632L1.8335 14.7372H3.8335L3.8335 13.2632H1.8335ZM2.14109 11.5061C1.94877 11.8115 1.88461 12.1267 1.8576 12.399C1.83235 12.6536 1.8335 12.9566 1.8335 13.2632H3.8335C3.8335 12.9165 3.83464 12.7295 3.84784 12.5964C3.85928 12.481 3.87201 12.5106 3.8335 12.5718L2.14109 11.5061ZM2.60466 10.9939C2.4216 11.1364 2.26473 11.3097 2.14109 11.5061L3.8335 12.5718L3.8335 12.5718L2.60466 10.9939ZM4.32247 10.5129C4.01741 10.5435 3.71578 10.5725 3.46492 10.6229C3.19662 10.6769 2.88942 10.7721 2.60467 10.9938L3.8335 12.5718C3.77646 12.6162 3.74565 12.6065 3.85934 12.5836C3.99047 12.5573 4.17643 12.5375 4.52148 12.503L4.32247 10.5129ZM5.73964 10.3712C5.83084 10.2506 5.91083 10.2875 5.63096 10.3484C5.35922 10.4077 4.96521 10.4487 4.32247 10.5129L4.52148 12.503C5.11339 12.4438 5.64535 12.3922 6.05681 12.3026C6.46013 12.2147 6.98051 12.0464 7.33519 11.5771L5.73964 10.3712ZM5.73964 10.3712L7.33519 11.5771C7.5409 11.305 7.67357 10.9847 7.72057 10.6467L5.73964 10.3712ZM4.8377 9.26886C5.24675 9.76881 5.49638 10.0764 5.64666 10.3105C5.80145 10.5515 5.7188 10.5211 5.73964 10.3712L7.72057 10.6467C7.8016 10.0641 7.55261 9.57715 7.32956 9.22981C7.10201 8.87545 6.76232 8.4628 6.38561 8.00238L4.8377 9.26886ZM4.80097 9.2211L4.80098 9.22111L6.42233 8.05013L6.42233 8.05012L4.80097 9.2211ZM3.96299 7.71392C4.00752 8.07212 4.15744 8.35671 4.30901 8.58461C4.45073 8.7977 4.64352 9.03153 4.83769 9.26885L6.38561 8.00238C6.16599 7.73395 6.04844 7.58847 5.97435 7.47707C5.91012 7.38049 5.93879 7.39542 5.94771 7.46716L3.96299 7.71392ZM3.99739 7.02414C3.94601 7.25033 3.93437 7.48374 3.96299 7.71392L5.94771 7.46716H5.94771L3.99739 7.02414ZM5.02245 5.56399C4.80563 5.78081 4.59054 5.99429 4.42832 6.19221C4.25483 6.4039 4.07735 6.67216 3.99739 7.02414L5.94771 7.46716C5.93169 7.53766 5.90169 7.54966 5.9752 7.45996C6.06 7.35649 6.19143 7.22344 6.43666 6.97821L5.02245 5.56399ZM6.06465 4.52179L5.02245 5.56399L6.43666 6.97821L7.47887 5.936L6.06465 4.52179ZM7.52437 3.49693C7.1725 3.57691 6.90433 3.75437 6.6927 3.92782C6.49483 4.08999 6.28141 4.30503 6.06465 4.52179L7.47887 5.936C7.72403 5.69084 7.85705 5.55944 7.96048 5.47466C8.05016 5.40116 8.03817 5.43115 7.96769 5.44718L7.52437 3.49693ZM8.21475 3.46249C7.98437 3.43381 7.75076 3.44547 7.52437 3.49693L7.96769 5.44718L7.96769 5.44718L8.21475 3.46249ZM9.7693 4.33709C9.53202 4.14296 9.29824 3.95021 9.08521 3.80852C8.85737 3.65698 8.57285 3.50707 8.21475 3.46249L7.96769 5.44718C7.89595 5.43824 7.88104 5.40959 7.97761 5.47382C8.08899 5.5479 8.23445 5.66543 8.50282 5.88501L9.7693 4.33709ZM10.8713 5.23875C11.0211 5.21797 11.0515 5.30057 10.8106 5.1458C10.5766 4.99555 10.2691 4.746 9.7693 4.3371L8.50282 5.88501C8.96308 6.26159 9.37558 6.60115 9.7298 6.82864C10.077 7.05161 10.5637 7.30057 11.1461 7.21978L10.8713 5.23875ZM10.8713 5.23875L10.8713 5.23875L11.1461 7.21978C11.4846 7.17283 11.8053 7.03997 12.0778 6.83388L10.8713 5.23875ZM11.013 3.82218C10.9487 4.46464 10.9077 4.85848 10.8486 5.13011C10.7876 5.40987 10.7507 5.32996 10.8713 5.23875L12.0778 6.83388C12.5467 6.4792 12.7149 5.95902 12.8027 5.55587C12.8923 5.14458 12.9439 4.61284 13.003 4.02119L11.013 3.82218ZM11.4936 2.10504C11.272 2.38972 11.1768 2.69681 11.1229 2.96499C11.0725 3.21575 11.0435 3.51725 11.013 3.82218L13.003 4.02119C13.0375 3.67629 13.0573 3.49041 13.0836 3.35933C13.1065 3.24568 13.1162 3.27647 13.0718 3.3335L11.4936 2.10504ZM12.0065 1.64083C11.8099 1.7646 11.6363 1.92169 11.4936 2.10504L13.0718 3.3335L13.0718 3.3335L12.0065 1.64083ZM13.7629 1.3335C13.4565 1.3335 13.1536 1.33235 12.8991 1.35758C12.6268 1.38456 12.3118 1.44868 12.0065 1.64083L13.0718 3.3335C13.0107 3.37199 12.981 3.35926 13.0963 3.34783C13.2294 3.33464 13.4163 3.3335 13.7629 3.3335V1.3335ZM15.2372 1.3335H13.7629V3.3335H15.2372V1.3335ZM16.994 1.64097C16.6887 1.44873 16.3736 1.38459 16.1013 1.35759C15.8467 1.33235 15.5438 1.3335 15.2372 1.3335V3.3335C15.5839 3.3335 15.7709 3.33464 15.904 3.34783C16.0194 3.35927 15.9897 3.372 15.9285 3.3335L16.994 1.64097ZM17.5066 2.10485C17.364 1.92164 17.1905 1.76467 16.994 1.64097L15.9285 3.3335V3.3335L17.5066 2.10485ZM18.1668 14.0002C18.1668 16.0252 16.5252 17.6668 14.5002 17.6668V19.6668C17.6298 19.6668 20.1668 17.1298 20.1668 14.0002H18.1668ZM14.5002 10.3335C16.5252 10.3335 18.1668 11.9751 18.1668 14.0002H20.1668C20.1668 10.8705 17.6298 8.3335 14.5002 8.3335V10.3335ZM10.8335 14.0002C10.8335 11.9751 12.4751 10.3335 14.5002 10.3335V8.3335C11.3706 8.3335 8.8335 10.8705 8.8335 14.0002H10.8335ZM14.5002 17.6668C12.4751 17.6668 10.8335 16.0252 10.8335 14.0002H8.8335C8.8335 17.1298 11.3706 19.6668 14.5002 19.6668V17.6668Z" fill="#777777"/>
</g>
</svg>
