<svg width="32" height="32" viewBox="0 0 32 32" fill="none" xmlns="http://www.w3.org/2000/svg">
<g id="Chat_alt_2">
<path id="Union" d="M25.768 7.70379C26.6668 9.04898 26.6668 10.9216 26.6668 14.6668C26.6668 18.4121 26.6668 20.2847 25.768 21.6299C25.3789 22.2122 24.8789 22.7122 24.2965 23.1013C23.1214 23.8865 21.5438 23.9858 18.6668 23.9983V24.0002L17.1927 26.9484C16.7014 27.9311 15.299 27.9311 14.8076 26.9484L13.3335 24.0002V23.9983C10.4566 23.9858 8.87892 23.8865 7.70379 23.1013C7.12144 22.7122 6.62144 22.2122 6.23232 21.6299C5.3335 20.2847 5.3335 18.4121 5.3335 14.6668C5.3335 10.9216 5.3335 9.04898 6.23232 7.70379C6.62144 7.12144 7.12144 6.62144 7.70379 6.23232C9.04898 5.3335 10.9216 5.3335 14.6668 5.3335H17.3335C21.0787 5.3335 22.9513 5.3335 24.2965 6.23232C24.8789 6.62144 25.3789 7.12144 25.768 7.70379Z" 
stroke="#777777" stroke-width="2" stroke-linecap="round" stroke-linejoin="round"/>
<path id="Vector 7" d="M12 12L20 12" stroke="#777777" stroke-width="2" stroke-linecap="round" stroke-linejoin="round"/>
<path id="Vector 8" d="M12 17.3335H16" stroke="#777777" stroke-width="2" stroke-linecap="round" stroke-linejoin="round"/>
</g>
</svg>
