<svg width="32" height="32" viewBox="0 0 32 32" fill="none" xmlns="http://www.w3.org/2000/svg">
<g id="Edit">
<path id="Rectangle 1" d="M6.12621 25.8736L6.83332 25.1665L6.12622 25.8736C6.49499 26.2424 6.94695 26.2357 7.15364 26.2155C7.33326 26.1979 7.53619 26.1469 7.68268 26.1101C7.69467 26.1071 7.70629 26.1042 7.71749 26.1014L11.7049 25.1045C11.7229 25.1 11.7413 25.0955 11.7602 25.0908C11.9685 25.0394 12.2322 24.9743 12.474 24.8374C12.7158 24.7005 12.9072 24.5079 13.0585 24.3558C13.0722 24.3419 13.0856 24.3285 13.0987 24.3154L23.2927 14.1213C23.3056 14.1085 23.3184 14.0957 23.3312 14.0829C23.6311 13.7831 23.9226 13.4917 24.1306 13.219C24.3652 12.9116 24.5856 12.5137 24.5856 12C24.5856 11.4863 24.3652 11.0884 24.1306 10.781C23.9226 10.5083 23.6311 10.217 23.3312 9.91716C23.3187 9.90464 23.3062 9.89211 23.2936 9.87955C23.2933 9.87926 23.293 9.87897 23.2927 9.87868L22.1212 8.70711C22.1083 8.69427 22.0955 8.68144 22.0827 8.66863C21.7829 8.36871 21.4915 8.07723 21.2189 7.86919C20.9115 7.63466 20.5135 7.41421 19.9998 7.41421C19.4862 7.41421 19.0882 7.63466 18.7808 7.86919C18.5081 8.07723 18.2168 8.36871 17.917 8.66863C17.9042 8.68145 17.8914 8.69427 17.8785 8.70711L7.68444 18.9012C7.67137 18.9143 7.65789 18.9277 7.64408 18.9414C7.4919 19.0926 7.29929 19.2841 7.1624 19.5259L8.0326 20.0186L7.1624 19.5259C7.02552 19.7676 6.96045 20.0313 6.90904 20.2396C6.90438 20.2585 6.89982 20.277 6.89534 20.2949L5.89847 24.2823C5.89567 24.2936 5.89275 24.3052 5.88973 24.3172C5.85291 24.4637 5.80191 24.6666 5.78434 24.8462C5.76412 25.0529 5.75744 25.5048 6.12621 25.8736Z" 
stroke="#777777" stroke-width="2"/>
<path id="Vector 107" d="M16.6665 10.0002L20.6665 7.3335L24.6665 11.3335L21.9998 15.3335L16.6665 10.0002Z" 
fill="#777777"/>
</g>
</svg>
