<svg width="32" height="32" viewBox="0 0 32 32" fill="none" xmlns="http://www.w3.org/2000/svg">
<g id="Flag_finish">
<path id="Rectangle 1" d="M8 17.3332V7.1665C8 6.9308 8 6.81295 8.07322 6.73973C8.14645 6.6665 8.2643 6.6665 8.5 6.6665H14.0486C14.3493 6.6665 14.4997 6.6665 14.6205 6.74118C14.7413 6.81585 14.8086 6.95033 14.9431 7.21929L15.7236 8.78038C15.8581 9.04934 15.9253 9.18382 16.0462 9.2585C16.167 9.33317 16.3173 9.33317 16.618 9.33317H23.5C23.7357 9.33317 23.8536 9.33317 23.9268 9.40639C24 9.47962 24 9.59747 24 9.83317V19.4998C24 19.7355 24 19.8534 23.9268 19.9266C23.8536 19.9998 23.7357 19.9998 23.5 19.9998H16.618C16.3173 19.9998 16.167 19.9998 16.0462 19.9252C15.9253 19.8505 15.8581 19.716 15.7236 19.4471L14.9431 17.886C14.8086 17.617 14.7413 17.4825 14.6205 17.4078C14.4997 17.3332 14.3493 17.3332 14.0486 17.3332H8ZM8 17.3332V25.3332" stroke="#4D4D4D" stroke-width="2" stroke-linecap="round"/>
</g>
</svg>
